<svg width="77" height="25" viewBox="0 0 77 25" fill="none" xmlns="http://www.w3.org/2000/svg">
<path d="M33.3082 13.1562C33.3082 16.753 30.4944 19.4034 27.0413 19.4034C23.5882 19.4034 20.7744 16.753 20.7744 13.1562C20.7744 9.53412 23.5882 6.90906 27.0413 6.90906C30.4944 6.90906 33.3082 9.53412 33.3082 13.1562ZM30.5648 13.1562C30.5648 10.9086 28.934 9.37076 27.0413 9.37076C25.1486 9.37076 23.5178 10.9086 23.5178 13.1562C23.5178 15.3814 25.1486 16.9417 27.0413 16.9417C28.934 16.9417 30.5648 15.3785 30.5648 13.1562Z" fill="#C9B8CC"/>
<path d="M46.8277 13.1562C46.8277 16.753 44.014 19.4034 40.5608 19.4034C37.1077 19.4034 34.2939 16.753 34.2939 13.1562C34.2939 9.53693 37.1077 6.90906 40.5608 6.90906C44.014 6.90906 46.8277 9.53412 46.8277 13.1562ZM44.0844 13.1562C44.0844 10.9086 42.4536 9.37076 40.5608 9.37076C38.6681 9.37076 37.0373 10.9086 37.0373 13.1562C37.0373 15.3814 38.6681 16.9417 40.5608 16.9417C42.4536 16.9417 44.0844 15.3785 44.0844 13.1562Z" fill="#C9B8CC"/>
<path d="M59.7837 7.28648V18.5021C59.7837 23.1157 57.0629 25 53.8464 25C50.8186 25 48.9962 22.9749 48.309 21.3187L50.6974 20.3245C51.1227 21.3412 52.1649 22.5411 53.8436 22.5411C55.9025 22.5411 57.1784 21.2708 57.1784 18.8795V17.9811H57.0826C56.4686 18.7387 55.2857 19.4006 53.7929 19.4006C50.6693 19.4006 47.8076 16.6798 47.8076 13.1788C47.8076 9.65241 50.6693 6.90906 53.7929 6.90906C55.2828 6.90906 56.4658 7.57095 57.0826 8.30608H57.1784V7.2893H59.7837V7.28648ZM57.3728 13.1788C57.3728 10.979 55.9053 9.37075 54.0379 9.37075C52.1452 9.37075 50.5594 10.979 50.5594 13.1788C50.5594 15.356 52.1452 16.9417 54.0379 16.9417C55.9053 16.9417 57.3728 15.356 57.3728 13.1788Z" fill="#C9B8CC"/>
<path d="M64.0791 0.712646V19.0205H61.4033V0.712646H64.0791Z" fill="#C9B8CC"/>
<path d="M74.5065 15.2124L76.6358 16.6319C75.9486 17.6487 74.2924 19.4006 71.4308 19.4006C67.8819 19.4006 65.2314 16.6573 65.2314 13.1534C65.2314 9.43836 67.9044 6.90625 71.1237 6.90625C74.3656 6.90625 75.9514 9.48624 76.4696 10.8805L76.7541 11.5902L68.4029 15.049C69.0423 16.3024 70.0365 16.9417 71.4308 16.9417C72.8278 16.9417 73.7967 16.2545 74.5065 15.2124ZM67.9523 12.9647L73.5347 10.6467C73.2277 9.86648 72.3039 9.32288 71.2167 9.32288C69.8225 9.32288 67.8819 10.5537 67.9523 12.9647Z" fill="#C9B8CC"/>
<path d="M10.6459 11.5311V8.8807H19.5773C19.6646 9.34262 19.7097 9.88903 19.7097 10.4805C19.7097 12.469 19.1661 14.9279 17.4142 16.6798C15.7102 18.4543 13.5329 19.4006 10.6488 19.4006C5.30289 19.4006 0.807617 15.0462 0.807617 9.70032C0.807617 4.35444 5.30289 0 10.6488 0C13.6062 0 15.713 1.16043 17.2959 2.67294L15.4257 4.54315C14.2906 3.47848 12.7528 2.65041 10.6459 2.65041C6.74216 2.65041 3.68898 5.79653 3.68898 9.70032C3.68898 13.6041 6.74216 16.7502 10.6459 16.7502C13.1781 16.7502 14.6201 15.7335 15.544 14.8096C16.2932 14.0604 16.7861 12.9901 16.9804 11.5283L10.6459 11.5311Z" fill="#C9B8CC"/>
</svg>
