<svg width="132" height="29" viewBox="0 0 132 29" fill="none" xmlns="http://www.w3.org/2000/svg">
<path d="M131.807 13.1667V10.8602H128.943V7.27442L128.846 7.30411L126.156 8.12725L126.103 8.14336V10.8603H121.857V9.34673C121.857 8.64196 122.014 8.10263 122.325 7.74295C122.633 7.38759 123.074 7.20692 123.637 7.20692C124.041 7.20692 124.46 7.3022 124.882 7.4901L124.987 7.5373V5.10822L124.938 5.08995C124.544 4.94862 124.01 4.87744 123.347 4.87744C122.511 4.87744 121.752 5.05925 121.09 5.41956C120.428 5.78038 119.907 6.29548 119.542 6.95039C119.178 7.60454 118.993 8.36005 118.993 9.19614V10.8602H116.999V13.1667H118.993V22.8836H121.857V13.1667H126.103V19.3416C126.103 21.8848 127.302 23.1735 129.668 23.1735C130.057 23.1735 130.466 23.128 130.884 23.0388C131.309 22.9472 131.599 22.8557 131.769 22.758L131.807 22.7357V20.4079L131.691 20.4849C131.535 20.5884 131.342 20.673 131.115 20.736C130.887 20.8 130.697 20.8321 130.549 20.8321C129.995 20.8321 129.585 20.6828 129.331 20.3881C129.073 20.0907 128.943 19.5706 128.943 18.8432V13.1667H131.807ZM110.605 20.8325C109.566 20.8325 108.747 20.4879 108.169 19.8092C107.588 19.127 107.294 18.1544 107.294 16.9187C107.294 15.6437 107.588 14.6459 108.17 13.9516C108.747 13.262 109.559 12.9119 110.582 12.9119C111.575 12.9119 112.365 13.2462 112.931 13.9061C113.5 14.5694 113.789 15.5592 113.789 16.849C113.789 18.1546 113.517 19.1576 112.982 19.8284C112.45 20.4943 111.651 20.8325 110.605 20.8325ZM110.732 10.5705C108.75 10.5705 107.175 11.1515 106.052 12.2972C104.93 13.4431 104.361 15.0289 104.361 17.0109C104.361 18.8934 104.917 20.4076 106.012 21.5108C107.108 22.6143 108.598 23.1733 110.443 23.1733C112.364 23.1733 113.908 22.5842 115.03 21.4226C116.152 20.2622 116.721 18.6914 116.721 16.7558C116.721 14.8438 116.187 13.3183 115.135 12.2225C114.082 11.1262 112.6 10.5705 110.732 10.5705ZM99.7452 10.5705C98.3965 10.5705 97.281 10.9155 96.4288 11.5957C95.5714 12.2799 95.1364 13.1772 95.1364 14.2631C95.1364 14.8276 95.2303 15.329 95.4151 15.7542C95.6009 16.1809 95.8885 16.5566 96.2707 16.8718C96.6499 17.1846 97.2353 17.5122 98.011 17.8455C98.6631 18.1138 99.1494 18.3408 99.4583 18.5196C99.7603 18.695 99.9746 18.8712 100.096 19.0429C100.213 19.2108 100.273 19.4407 100.273 19.7244C100.273 20.5322 99.6679 20.9252 98.4232 20.9252C97.9615 20.9252 97.4348 20.8288 96.858 20.6388C96.2852 20.4516 95.7446 20.1775 95.2551 19.826L95.1362 19.7408V22.4973L95.1798 22.5176C95.5849 22.7046 96.0957 22.8623 96.6977 22.9864C97.2986 23.1106 97.8445 23.1738 98.3188 23.1738C99.7822 23.1738 100.961 22.8272 101.821 22.143C102.686 21.454 103.125 20.5355 103.125 19.4121C103.125 18.6016 102.889 17.9066 102.423 17.3461C101.961 16.7901 101.159 16.2797 100.04 15.8286C99.1485 15.4708 98.5774 15.1738 98.3419 14.9458C98.1147 14.7256 97.9994 14.4141 97.9994 14.0197C97.9994 13.67 98.1418 13.3899 98.434 13.163C98.7284 12.935 99.1384 12.8191 99.6524 12.8191C100.129 12.8191 100.618 12.8944 101.103 13.0421C101.588 13.1898 102.014 13.3876 102.37 13.6295L102.487 13.7095V11.0946L102.442 11.0754C102.114 10.9347 101.681 10.8143 101.155 10.7166C100.632 10.6195 100.158 10.5705 99.7452 10.5705ZM87.6725 20.8325C86.6335 20.8325 85.8139 20.4879 85.2367 19.8092C84.6556 19.127 84.3618 18.1546 84.3618 16.9187C84.3618 15.6437 84.656 14.6459 85.2373 13.9516C85.8146 13.262 86.6259 12.9119 87.6495 12.9119C88.6419 12.9119 89.4322 13.2462 89.9984 13.9061C90.5674 14.5694 90.8561 15.5592 90.8561 16.849C90.8561 18.1546 90.5844 19.1576 90.049 19.8284C89.5173 20.4943 88.7181 20.8325 87.6725 20.8325ZM87.8001 10.5705C85.817 10.5705 84.2421 11.1515 83.1199 12.2972C81.9979 13.4431 81.4286 15.0289 81.4286 17.0109C81.4286 18.8942 81.9843 20.4076 83.0797 21.5108C84.1751 22.6143 85.6657 23.1733 87.5101 23.1733C89.4317 23.1733 90.9754 22.5842 92.0977 21.4226C93.2197 20.2622 93.7884 18.6914 93.7884 16.7558C93.7884 14.8438 93.2548 13.3183 92.2019 12.2225C91.1485 11.1262 89.6674 10.5705 87.8001 10.5705ZM77.0825 12.9424V10.8602H74.2543V22.8834H77.0825V16.733C77.0825 15.6872 77.3196 14.8281 77.7875 14.1791C78.2495 13.5379 78.865 13.213 79.6166 13.213C79.8714 13.213 80.1574 13.255 80.4671 13.3381C80.7736 13.4207 80.9956 13.5104 81.1265 13.6048L81.2454 13.6909V10.8396L81.1996 10.82C80.9362 10.7081 80.5636 10.6516 80.0921 10.6516C79.3814 10.6516 78.7454 10.88 78.2006 11.3296C77.7224 11.7248 77.3768 12.2667 77.1126 12.9424H77.0825ZM69.1894 10.5705C67.8919 10.5705 66.7346 10.8488 65.7502 11.3972C64.7638 11.947 64.0009 12.7318 63.4819 13.7298C62.9651 14.7253 62.7028 15.8882 62.7028 17.1851C62.7028 18.3211 62.9571 19.3636 63.4599 20.2824C63.963 21.2027 64.675 21.9227 65.5763 22.4221C66.4763 22.9208 67.5165 23.1737 68.6683 23.1737C70.0123 23.1737 71.1599 22.9049 72.08 22.375L72.1171 22.3537V19.7626L71.9983 19.8494C71.5815 20.153 71.1157 20.3953 70.6146 20.5699C70.1147 20.7443 69.659 20.8325 69.2594 20.8325C68.1496 20.8325 67.2587 20.4853 66.6121 19.8007C65.964 19.1152 65.6354 18.1526 65.6354 16.9414C65.6354 15.7225 65.9781 14.7352 66.6534 14.0067C67.3267 13.2804 68.2193 12.9119 69.306 12.9119C70.2356 12.9119 71.1415 13.2267 71.9985 13.8484L72.1171 13.9345V11.2044L72.0788 11.1828C71.7563 11.0023 71.3164 10.8532 70.7704 10.7402C70.2266 10.6274 69.6948 10.5705 69.1894 10.5705ZM60.7549 10.8603H57.9267V22.8834H60.7549V10.8603ZM59.3697 5.73839C58.9042 5.73839 58.4982 5.89685 58.1647 6.21086C57.8298 6.52575 57.6599 6.92222 57.6599 7.39013C57.6599 7.85067 57.8277 8.23991 58.1595 8.54643C58.4891 8.85206 58.8964 9.00697 59.3699 9.00697C59.8432 9.00697 60.252 8.85206 60.5855 8.54694C60.9212 8.23991 61.0915 7.85079 61.0915 7.39013C61.0915 6.93859 60.9258 6.54618 60.5994 6.22354C60.2732 5.90155 59.8593 5.73839 59.3697 5.73839ZM52.3131 9.97322V22.8834H55.1995V6.10644H51.2047L46.127 18.5679L41.1994 6.10644H37.042V22.8833H39.7544V9.97195H39.8475L45.0509 22.8834H47.0978L52.22 9.97322H52.3131Z" fill="#ADADAD"/>
<path d="M13.959 13.8047H0.654297V0.5H13.959V13.8047Z" fill="#ADADAD"/>
<path d="M28.6492 13.8047H15.3447V0.5H28.6492V13.8047Z" fill="#ADADAD"/>
<path d="M13.9587 28.5001H0.654297V15.1954H13.9587V28.5001Z" fill="#ADADAD"/>
<path d="M28.6492 28.5001H15.3447V15.1954H28.6492V28.5001Z" fill="#ADADAD"/>
</svg>
