<svg width="106" height="76" viewBox="0 0 106 76" fill="none" xmlns="http://www.w3.org/2000/svg">
<path fill-rule="evenodd" clip-rule="evenodd" d="M0.777832 37.9999C0.777832 35.4961 1.02628 33.0503 1.49988 30.6859H104.5C104.974 33.0503 105.222 35.4961 105.222 37.9999C105.222 58.4549 88.6403 75.037 68.1852 75.037H37.8149C17.3599 75.037 0.777832 58.4549 0.777832 37.9999ZM97.8879 15.8711H8.11258C14.8652 6.82211 25.6558 0.962891 37.8149 0.962891H68.1852C80.3443 0.962891 91.1349 6.82211 97.8879 15.8711ZM17.8157 43.5537C14.7475 43.5537 12.2602 46.041 12.2602 49.1093V57.4426C12.2602 60.5109 14.7475 62.9982 17.8157 62.9982C20.8839 62.9982 23.3713 60.5109 23.3713 57.4426V49.1093C23.3713 46.041 20.8839 43.5537 17.8157 43.5537ZM29.8532 42.1662C29.8532 39.098 32.3405 36.6107 35.4088 36.6107C38.477 36.6107 40.9643 39.098 40.9643 42.1662V64.3884C40.9643 67.4567 38.477 69.944 35.4088 69.944C32.3405 69.944 29.8532 67.4567 29.8532 64.3884V42.1662ZM52.999 43.5537C49.9307 43.5537 47.4434 46.041 47.4434 49.1093V57.4426C47.4434 60.5109 49.9307 62.9982 52.999 62.9982C56.0672 62.9982 58.5545 60.5109 58.5545 57.4426V49.1093C58.5545 46.041 56.0672 43.5537 52.999 43.5537ZM65.0365 42.1662C65.0365 39.098 67.5239 36.6107 70.5921 36.6107C73.6603 36.6107 76.1477 39.098 76.1477 42.1662V64.3884C76.1477 67.4567 73.6603 69.944 70.5921 69.944C67.5239 69.944 65.0365 67.4567 65.0365 64.3884V42.1662ZM88.1825 43.5537C85.1142 43.5537 82.6269 46.041 82.6269 49.1093V57.4426C82.6269 60.5109 85.1142 62.9982 88.1825 62.9982C91.2507 62.9982 93.7379 60.5109 93.7379 57.4426V49.1093C93.7379 46.041 91.2507 43.5537 88.1825 43.5537Z" fill="#E266ED"/>
</svg>
